<svg version="1.1" viewBox="0.0 0.0 434.9448818897638 100.0" fill="none" stroke="none" stroke-linecap="square" stroke-miterlimit="10" xmlns:xlink="http://www.w3.org/1999/xlink" xmlns="http://www.w3.org/2000/svg"><clipPath id="p.0"><path d="m0 0l434.9449 0l0 100.0l-434.9449 0l0 -100.0z" clip-rule="nonzero"/></clipPath><g clip-path="url(#p.0)"><path fill="#000000" fill-opacity="0.0" d="m0 0l434.9449 0l0 100.0l-434.9449 0z" fill-rule="evenodd"/><path fill="#ffffff" d="m2.0293028 97.462364l0 -95.433075l95.43307 95.433075z" fill-rule="evenodd"/><path stroke="#000000" stroke-width="4.0" stroke-linejoin="round" stroke-linecap="butt" d="m2.0293028 97.462364l0 -95.433075l95.43307 95.433075z" fill-rule="evenodd"/><path fill="#ffffff" d="m102.44093 49.745827l0 0c0 -26.353115 21.363419 -47.716534 47.716537 -47.716534l0 0c12.655212 0 24.792099 5.0272636 33.740677 13.975849c8.948593 8.948587 13.975861 21.085474 13.975861 33.740685l0 0c0 26.353111 -21.363434 47.716537 -47.716537 47.716537l0 0c-26.353119 0 -47.716537 -21.363426 -47.716537 -47.716537z" fill-rule="evenodd"/><path stroke="#000000" stroke-width="4.0" stroke-linejoin="round" stroke-linecap="butt" d="m102.44093 49.745827l0 0c0 -26.353115 21.363419 -47.716534 47.716537 -47.716534l0 0c12.655212 0 24.792099 5.0272636 33.740677 13.975849c8.948593 8.948587 13.975861 21.085474 13.975861 33.740685l0 0c0 26.353111 -21.363434 47.716537 -47.716537 47.716537l0 0c-26.353119 0 -47.716537 -21.363426 -47.716537 -47.716537z" fill-rule="evenodd"/><path fill="#ffffff" d="m315.17825 49.745827l0 0c0 26.353111 -21.363403 47.716537 -47.716522 47.716537c-26.353119 0 -47.716537 -21.363426 -47.716537 -47.716537c0 -26.353115 21.363419 -47.716534 47.716537 -47.716534l0 47.716534z" fill-rule="evenodd"/><path stroke="#000000" stroke-width="4.0" stroke-linejoin="round" stroke-linecap="butt" d="m315.17825 49.745827l0 0c0 26.353111 -21.363403 47.716537 -47.716522 47.716537c-26.353119 0 -47.716537 -21.363426 -47.716537 -47.716537c0 -26.353115 21.363419 -47.716534 47.716537 -47.716534l0 47.716534z" fill-rule="evenodd"/><path fill="#ffffff" d="m337.04947 49.745827l0 0c0 -26.353115 21.363403 -47.716534 47.716522 -47.716534l0 0c12.655212 0 24.792114 5.0272636 33.740692 13.975849c8.948578 8.948587 13.97583 21.085474 13.97583 33.740685l0 0c0 26.353111 -21.363403 47.716537 -47.716522 47.716537l0 0c-26.353119 0 -47.716522 -21.363426 -47.716522 -47.716537z" fill-rule="evenodd"/><path stroke="#000000" stroke-width="4.0" stroke-linejoin="round" stroke-linecap="butt" d="m337.04947 49.745827l0 0c0 -26.353115 21.363403 -47.716534 47.716522 -47.716534l0 0c12.655212 0 24.792114 5.0272636 33.740692 13.975849c8.948578 8.948587 13.97583 21.085474 13.97583 33.740685l0 0c0 26.353111 -21.363403 47.716537 -47.716522 47.716537l0 0c-26.353119 0 -47.716522 -21.363426 -47.716522 -47.716537z" fill-rule="evenodd"/></g></svg>